<?xml version="1.0" standalone="no"?>
<!DOCTYPE svg PUBLIC "-//W3C//DTD SVG 20010904//EN"
 "http://www.w3.org/TR/2001/REC-SVG-20010904/DTD/svg10.dtd">
<svg version="1.0" xmlns="http://www.w3.org/2000/svg"
 width="530.000000pt" height="530.000000pt" viewBox="0 0 530.000000 530.000000"
 preserveAspectRatio="xMidYMid meet">
<metadata>
Created by potrace 1.14, written by Peter Selinger 2001-2017
</metadata>
<g transform="translate(0.000000,530.000000) scale(0.100000,-0.100000)"
fill="#000000" stroke="none">
<path d="M1665 5234 c-493 -37 -867 -188 -1141 -459 -171 -168 -254 -352 -254
-557 1 -284 180 -518 535 -696 231 -116 476 -189 1000 -298 72 -14 132 -28
134 -30 2 -1 -25 -45 -59 -96 -146 -218 -244 -464 -297 -743 -24 -129 -29
-437 -9 -591 10 -71 20 -137 22 -146 7 -25 -10 -23 -123 13 -297 95 -578 300
-785 574 -148 196 -273 452 -339 693 -21 78 -23 82 -51 82 l-28 0 0 -475 0
-474 60 -50 c312 -260 730 -440 1150 -497 63 -8 124 -17 135 -19 16 -3 27 -24
49 -92 149 -456 510 -865 950 -1073 543 -257 1178 -265 1692 -20 295 140 513
332 694 611 l61 94 -23 18 c-22 18 -23 18 -41 -5 -255 -320 -517 -483 -907
-564 -65 -14 -132 -18 -290 -19 -178 0 -220 3 -315 24 -541 115 -988 463
-1227 956 l-39 80 63 12 c353 65 585 178 773 375 103 107 144 172 192 299 56
148 68 223 68 414 0 155 -3 180 -29 280 -74 287 -248 492 -541 637 -38 19 -92
43 -118 53 -26 10 -50 21 -52 26 -3 4 28 28 67 53 202 125 423 187 673 187
217 0 390 -42 590 -144 283 -145 542 -384 774 -715 25 -34 48 -59 52 -55 5 6
120 299 206 529 2 6 -26 35 -64 65 -554 435 -1348 580 -1998 364 -123 -41
-321 -132 -411 -190 -62 -40 -75 -43 -129 -25 -29 9 -41 25 -91 121 -67 130
-101 160 -189 167 -95 8 -171 -45 -199 -137 l-11 -38 -200 48 c-233 55 -367
100 -521 174 -235 111 -357 246 -387 422 -42 257 205 545 570 666 146 48 222
60 393 60 237 0 397 -33 579 -119 257 -121 478 -330 768 -726 l70 -96 102 271
102 272 -33 29 c-44 38 -206 143 -298 194 -229 125 -558 228 -855 267 -121 16
-377 26 -470 19z m555 -2274 c54 -112 105 -150 201 -150 79 0 143 40 171 107
l14 32 74 -57 c174 -135 290 -360 290 -564 0 -267 -128 -471 -383 -608 -79
-43 -282 -114 -359 -125 -56 -8 -54 -11 -94 145 -80 308 -98 683 -48 964 17
97 83 326 94 326 3 0 21 -31 40 -70z"/>
</g>
</svg>
